<mxfile host="app.diagrams.net" modified="2024-05-12T08:35:12.914Z" agent="Mozilla/5.0 (Macintosh; Intel Mac OS X 10_15_7) AppleWebKit/537.36 (KHTML, like Gecko) Chrome/124.0.0.0 Safari/537.36" etag="dnw_7UMbqc8g_HIGE9wK" version="24.4.0" type="device">
  <diagram name="第 1 页" id="vQPYJXQypb5ZKPL4AD0h">
    <mxGraphModel dx="1727" dy="975" grid="1" gridSize="2" guides="1" tooltips="1" connect="1" arrows="1" fold="1" page="1" pageScale="1" pageWidth="1654" pageHeight="1169" math="0" shadow="0">
      <root>
        <mxCell id="0" />
        <mxCell id="1" parent="0" />
        <mxCell id="WrZ9NEvWkx4gDWSt8yxS-7" style="edgeStyle=orthogonalEdgeStyle;rounded=0;orthogonalLoop=1;jettySize=auto;html=1;entryX=0;entryY=0.5;entryDx=0;entryDy=0;exitX=1;exitY=0.5;exitDx=0;exitDy=0;" parent="1" source="CQn9b_zsBKV_uo-ZYTD5-27" target="WrZ9NEvWkx4gDWSt8yxS-8" edge="1">
          <mxGeometry relative="1" as="geometry">
            <mxPoint x="502" y="176" as="targetPoint" />
            <mxPoint x="452" y="176" as="sourcePoint" />
          </mxGeometry>
        </mxCell>
        <mxCell id="WrZ9NEvWkx4gDWSt8yxS-21" style="edgeStyle=orthogonalEdgeStyle;rounded=0;orthogonalLoop=1;jettySize=auto;html=1;entryX=1;entryY=0.5;entryDx=0;entryDy=0;" parent="1" source="WrZ9NEvWkx4gDWSt8yxS-2" target="WrZ9NEvWkx4gDWSt8yxS-6" edge="1">
          <mxGeometry relative="1" as="geometry" />
        </mxCell>
        <mxCell id="WrZ9NEvWkx4gDWSt8yxS-2" value="node1" style="rounded=1;whiteSpace=wrap;html=1;fillColor=#d5e8d4;strokeColor=#82b366;" parent="1" vertex="1">
          <mxGeometry x="402" y="201" width="170" height="30" as="geometry" />
        </mxCell>
        <mxCell id="WrZ9NEvWkx4gDWSt8yxS-34" style="edgeStyle=orthogonalEdgeStyle;rounded=0;orthogonalLoop=1;jettySize=auto;html=1;entryX=0;entryY=0.5;entryDx=0;entryDy=0;exitX=0;exitY=0.5;exitDx=0;exitDy=0;" parent="1" source="WrZ9NEvWkx4gDWSt8yxS-6" target="CQn9b_zsBKV_uo-ZYTD5-27" edge="1">
          <mxGeometry relative="1" as="geometry">
            <Array as="points">
              <mxPoint x="262" y="216" />
              <mxPoint x="262" y="176" />
            </Array>
            <mxPoint x="271.9999999999999" y="176" as="targetPoint" />
          </mxGeometry>
        </mxCell>
        <mxCell id="WrZ9NEvWkx4gDWSt8yxS-6" value="signal: on_click" style="text;html=1;align=center;verticalAlign=middle;whiteSpace=wrap;rounded=0;" parent="1" vertex="1">
          <mxGeometry x="272" y="201" width="90" height="30" as="geometry" />
        </mxCell>
        <mxCell id="WrZ9NEvWkx4gDWSt8yxS-39" style="edgeStyle=orthogonalEdgeStyle;rounded=0;orthogonalLoop=1;jettySize=auto;html=1;entryX=0;entryY=0.5;entryDx=0;entryDy=0;" parent="1" source="WrZ9NEvWkx4gDWSt8yxS-8" target="WrZ9NEvWkx4gDWSt8yxS-38" edge="1">
          <mxGeometry relative="1" as="geometry" />
        </mxCell>
        <mxCell id="WrZ9NEvWkx4gDWSt8yxS-8" value="signal: forward" style="text;html=1;align=center;verticalAlign=middle;whiteSpace=wrap;rounded=0;" parent="1" vertex="1">
          <mxGeometry x="498.95" y="161" width="90" height="30" as="geometry" />
        </mxCell>
        <mxCell id="WrZ9NEvWkx4gDWSt8yxS-22" style="edgeStyle=orthogonalEdgeStyle;rounded=0;orthogonalLoop=1;jettySize=auto;html=1;entryX=1;entryY=0.5;entryDx=0;entryDy=0;" parent="1" source="WrZ9NEvWkx4gDWSt8yxS-10" target="WrZ9NEvWkx4gDWSt8yxS-11" edge="1">
          <mxGeometry relative="1" as="geometry" />
        </mxCell>
        <mxCell id="WrZ9NEvWkx4gDWSt8yxS-10" value="node2" style="rounded=1;whiteSpace=wrap;html=1;fillColor=#d5e8d4;strokeColor=#82b366;" parent="1" vertex="1">
          <mxGeometry x="402" y="237" width="170" height="30" as="geometry" />
        </mxCell>
        <mxCell id="WrZ9NEvWkx4gDWSt8yxS-35" style="edgeStyle=orthogonalEdgeStyle;rounded=0;orthogonalLoop=1;jettySize=auto;html=1;entryX=0;entryY=0.5;entryDx=0;entryDy=0;exitX=0;exitY=0.5;exitDx=0;exitDy=0;" parent="1" source="WrZ9NEvWkx4gDWSt8yxS-11" target="CQn9b_zsBKV_uo-ZYTD5-27" edge="1">
          <mxGeometry relative="1" as="geometry">
            <Array as="points">
              <mxPoint x="252.00000000000003" y="252" />
              <mxPoint x="252.00000000000003" y="176" />
            </Array>
            <mxPoint x="271.9999999999999" y="176" as="targetPoint" />
          </mxGeometry>
        </mxCell>
        <mxCell id="WrZ9NEvWkx4gDWSt8yxS-11" value="signal: on_click" style="text;html=1;align=center;verticalAlign=middle;whiteSpace=wrap;rounded=0;" parent="1" vertex="1">
          <mxGeometry x="272" y="237" width="90" height="30" as="geometry" />
        </mxCell>
        <mxCell id="WrZ9NEvWkx4gDWSt8yxS-23" style="edgeStyle=orthogonalEdgeStyle;rounded=0;orthogonalLoop=1;jettySize=auto;html=1;entryX=1;entryY=0.5;entryDx=0;entryDy=0;" parent="1" source="WrZ9NEvWkx4gDWSt8yxS-13" target="WrZ9NEvWkx4gDWSt8yxS-14" edge="1">
          <mxGeometry relative="1" as="geometry" />
        </mxCell>
        <mxCell id="WrZ9NEvWkx4gDWSt8yxS-13" value="node3" style="rounded=1;whiteSpace=wrap;html=1;fillColor=#d5e8d4;strokeColor=#82b366;" parent="1" vertex="1">
          <mxGeometry x="438" y="272" width="170" height="30" as="geometry" />
        </mxCell>
        <mxCell id="WrZ9NEvWkx4gDWSt8yxS-36" style="edgeStyle=orthogonalEdgeStyle;rounded=0;orthogonalLoop=1;jettySize=auto;html=1;entryX=0;entryY=0.5;entryDx=0;entryDy=0;exitX=0;exitY=0.5;exitDx=0;exitDy=0;" parent="1" source="WrZ9NEvWkx4gDWSt8yxS-14" target="CQn9b_zsBKV_uo-ZYTD5-27" edge="1">
          <mxGeometry relative="1" as="geometry">
            <Array as="points">
              <mxPoint x="242.00000000000003" y="287" />
              <mxPoint x="242.00000000000003" y="176" />
            </Array>
            <mxPoint x="271.9999999999999" y="176" as="targetPoint" />
          </mxGeometry>
        </mxCell>
        <mxCell id="WrZ9NEvWkx4gDWSt8yxS-14" value="signal: on_click" style="text;html=1;align=center;verticalAlign=middle;whiteSpace=wrap;rounded=0;" parent="1" vertex="1">
          <mxGeometry x="272" y="272" width="90" height="30" as="geometry" />
        </mxCell>
        <mxCell id="WrZ9NEvWkx4gDWSt8yxS-38" value="&lt;span style=&quot;background-color: initial;&quot;&gt;_on_click_forward(args):&lt;/span&gt;&lt;div&gt;&lt;span style=&quot;background-color: initial;&quot;&gt;do something&lt;/span&gt;&lt;/div&gt;" style="rounded=0;whiteSpace=wrap;html=1;" parent="1" vertex="1">
          <mxGeometry x="643" y="158" width="160" height="36" as="geometry" />
        </mxCell>
        <mxCell id="WrZ9NEvWkx4gDWSt8yxS-40" value="connect to script" style="text;html=1;align=center;verticalAlign=middle;whiteSpace=wrap;rounded=0;" parent="1" vertex="1">
          <mxGeometry x="488.95" y="137" width="110" height="30" as="geometry" />
        </mxCell>
        <mxCell id="WrZ9NEvWkx4gDWSt8yxS-41" style="edgeStyle=orthogonalEdgeStyle;rounded=0;orthogonalLoop=1;jettySize=auto;html=1;entryX=1;entryY=0.5;entryDx=0;entryDy=0;" parent="1" source="WrZ9NEvWkx4gDWSt8yxS-42" target="WrZ9NEvWkx4gDWSt8yxS-43" edge="1">
          <mxGeometry relative="1" as="geometry" />
        </mxCell>
        <mxCell id="WrZ9NEvWkx4gDWSt8yxS-42" value="node4" style="rounded=1;whiteSpace=wrap;html=1;fillColor=#d5e8d4;strokeColor=#82b366;" parent="1" vertex="1">
          <mxGeometry x="473" y="308" width="170" height="30" as="geometry" />
        </mxCell>
        <mxCell id="WrZ9NEvWkx4gDWSt8yxS-45" style="edgeStyle=orthogonalEdgeStyle;rounded=0;orthogonalLoop=1;jettySize=auto;html=1;entryX=0;entryY=0.5;entryDx=0;entryDy=0;exitX=0;exitY=0.5;exitDx=0;exitDy=0;" parent="1" source="WrZ9NEvWkx4gDWSt8yxS-43" target="CQn9b_zsBKV_uo-ZYTD5-27" edge="1">
          <mxGeometry relative="1" as="geometry">
            <Array as="points">
              <mxPoint x="232.00000000000003" y="323" />
              <mxPoint x="232.00000000000003" y="176" />
            </Array>
            <mxPoint x="271.9999999999999" y="176" as="targetPoint" />
          </mxGeometry>
        </mxCell>
        <mxCell id="WrZ9NEvWkx4gDWSt8yxS-43" value="signal: on_click" style="text;html=1;align=center;verticalAlign=middle;whiteSpace=wrap;rounded=0;" parent="1" vertex="1">
          <mxGeometry x="272" y="308" width="90" height="30" as="geometry" />
        </mxCell>
        <mxCell id="WrZ9NEvWkx4gDWSt8yxS-48" value="&lt;h1 style=&quot;margin-top: 0px;&quot;&gt;Options&lt;/h1&gt;&lt;p style=&quot;line-height: 100%;&quot;&gt;forward_signal_name:&amp;nbsp; on_click&lt;/p&gt;&lt;p style=&quot;line-height: 100%;&quot;&gt;monitor_method:&amp;nbsp;Recursive&lt;/p&gt;" style="text;html=1;whiteSpace=wrap;overflow=hidden;rounded=0;" parent="1" vertex="1">
          <mxGeometry x="273" y="63" width="200" height="95" as="geometry" />
        </mxCell>
        <mxCell id="Y1_qTqmXXXxOQ1tV8q3Z-2" style="edgeStyle=orthogonalEdgeStyle;rounded=0;orthogonalLoop=1;jettySize=auto;html=1;entryX=1;entryY=0.5;entryDx=0;entryDy=0;" parent="1" source="Y1_qTqmXXXxOQ1tV8q3Z-3" target="Y1_qTqmXXXxOQ1tV8q3Z-4" edge="1">
          <mxGeometry relative="1" as="geometry" />
        </mxCell>
        <mxCell id="Y1_qTqmXXXxOQ1tV8q3Z-3" value="node5" style="rounded=1;whiteSpace=wrap;html=1;fillColor=#f8cecc;strokeColor=#b85450;" parent="1" vertex="1">
          <mxGeometry x="403" y="343" width="170" height="30" as="geometry" />
        </mxCell>
        <mxCell id="Y1_qTqmXXXxOQ1tV8q3Z-4" value="signal: on_select" style="text;html=1;align=center;verticalAlign=middle;whiteSpace=wrap;rounded=0;" parent="1" vertex="1">
          <mxGeometry x="262" y="345" width="100" height="26" as="geometry" />
        </mxCell>
        <mxCell id="CQn9b_zsBKV_uo-ZYTD5-27" value="&lt;span style=&quot;font-weight: 400; text-align: center;&quot;&gt;SignalForward&lt;/span&gt;" style="label;whiteSpace=wrap;html=1;image=data:image/svg+xml,PHN2ZyB4bWxuczp4bGluaz0iaHR0cDovL3d3dy53My5vcmcvMTk5OS94bGluayIgeG1sbnM9Imh0dHA6Ly93d3cudzMub3JnLzIwMDAvc3ZnIiB4bWw6c3BhY2U9InByZXNlcnZlIiB2aWV3Qm94PSIwIDAgMzIgMzIiIGhlaWdodD0iODAwcHgiIHdpZHRoPSI4MDBweCIgaWQ9IlVwbG9hZGVkIHRvIHN2Z3JlcG8uY29tIiB2ZXJzaW9uPSIxLjEiPiYjeGE7PHN0eWxlIHR5cGU9InRleHQvY3NzIj4mI3hhOwkucGljdG9ncmFtX2VlbntmaWxsOiNGNEQ2QjA7fSYjeGE7CS5waWN0b2dyYW1fdHdlZXtmaWxsOiNGOEFEODk7fSYjeGE7CS5waWN0b2dyYW1femVze2ZpbGw6IzBDNjY2Nzt9JiN4YTsJLnBpY3RvZ3JhbV92aWpme2ZpbGw6IzAxQTU5Qzt9JiN4YTsJLnN0MHtmaWxsOiNFNTREMkU7fSYjeGE7CS5zdDF7ZmlsbDojRjhBRDg5O30mI3hhOwkuc3Qye2ZpbGw6I0YyNzI2MTt9JiN4YTsJLnN0M3tmaWxsOm5vbmU7fSYjeGE7CS5zdDR7ZmlsbDojMDFBNTlDO30mI3hhOwkuc3Q1e2ZpbGw6IzAwOEE3NDt9JiN4YTs8L3N0eWxlPiYjeGE7PGc+JiN4YTsJPHBhdGggZD0iTTQsMTZjMCw2LjYyNyw1LjM3MywxMiwxMiwxMnYtNGgtMy41QzEwLjAxOSwyNCw4LDIxLjk4MSw4LDE5LjV2LTVjMC0yLjQ4MSwyLjAxOS00LjUsNC41LTQuNSYjMTA7JiM5OyYjOTtoMC4yMjJjLTAuNDkyLTAuNTg5LTAuNDgtMS40NTcsMC4wNzMtMi4wMTFjMC41ODYtMC41ODYsMS41MzUtMC41ODYsMi4xMjEsMEwxNiw5LjA3M1Y0QzkuMzczLDQsNCw5LjM3Myw0LDE2eiIgY2xhc3M9InBpY3RvZ3JhbV90d2VlIi8+JiN4YTsJPHBhdGggZD0iTTEzLjg1NiwxNS40Yy0wLjM4NCwwLTAuNzY4LTAuMTQ2LTEuMDYxLTAuNDM5Yy0wLjUzOC0wLjUzOC0wLjU1OC0xLjM3Mi0wLjEwNy0xLjk2SDEyLjUmIzEwOyYjOTsmIzk7Yy0wLjgyNywwLTEuNSwwLjY3My0xLjUsMS41djVjMCwwLjgyNywwLjY3MywxLjUsMS41LDEuNUgxNnYtNy4xMjNsLTEuMDgzLDEuMDgzQzE0LjYyNCwxNS4yNTMsMTQuMjQsMTUuNCwxMy44NTYsMTUuNHoiIGNsYXNzPSJwaWN0b2dyYW1fdHdlZSIvPiYjeGE7CTxwYXRoIGQ9Ik00LDE2QzQsOS4zNzMsOS4zNzMsNCwxNiw0VjBDNy4xNjMsMCwwLDcuMTYzLDAsMTZzNy4xNjMsMTYsMTYsMTZ2LTRDOS4zNzMsMjgsNCwyMi42MjcsNCwxNnoiIGNsYXNzPSJwaWN0b2dyYW1femVzIi8+JiN4YTsJPHBhdGggZD0iTTE2LDB2NGM2LjYyNywwLDEyLDUuMzczLDEyLDEyYzAsNi42MjctNS4zNzMsMTItMTIsMTJ2NGM4LjgzNywwLDE2LTcuMTYzLDE2LTE2UzI0LjgzNywwLDE2LDB6IiBjbGFzcz0icGljdG9ncmFtX3ZpamYiLz4mI3hhOwk8cGF0aCBkPSJNMTYsNHY1LjA3M2wyLjQwMiwyLjQwMkwxNiwxMy44NzdWMjFoMi41YzEuODg5LDAsMS41LTAuNjc0LDEuNS0yLjVjMC0wLjgyOCwwLjY3MS0xLjUsMS41LTEuNSYjMTA7JiM5OyYjOTtzMS41LDAuNjcyLDEuNSwxLjV2MmMwLDEuOTYzLTEuOTc3LDMuNS00LjUsMy41SDE2djRjNi42MjcsMCwxMi01LjM3MywxMi0xMkMyOCw5LjM3MywyMi42MjcsNCwxNiw0eiBNMjAuNjM2LDE0Ljk2JiMxMDsmIzk7JiM5O2MtMC4yOTMsMC4yOTMtMC42NzcsMC40MzktMS4wNjEsMC40MzlzLTAuNzY4LTAuMTQ2LTEuMDYxLTAuNDM5Yy0wLjU4Ni0wLjU4Ni0wLjU4Ni0xLjUzNSwwLTIuMTIxbDEuMzY0LTEuMzY0bC0xLjM2NC0xLjM2NCYjMTA7JiM5OyYjOTtjLTAuNTg2LTAuNTg2LTAuNTg2LTEuNTM1LDAtMi4xMjFzMS41MzUtMC41ODYsMi4xMjEsMGwzLjQ4NSwzLjQ4NUwyMC42MzYsMTQuOTZ6IiBjbGFzcz0icGljdG9ncmFtX2VlbiIvPiYjeGE7CTxwYXRoIGQ9Ik0xOS44NzksMTEuNDc1bC0xLjM2NCwxLjM2NGMtMC41ODYsMC41ODYtMC41ODYsMS41MzUsMCwyLjEyMWMwLjU4NiwwLjU4NiwxLjUzNSwwLjU4NiwyLjEyMSwwJiMxMDsmIzk7JiM5O2wzLjQ4NS0zLjQ4NWwtMy40ODUtMy40ODVjLTAuNTg2LTAuNTg2LTEuNTM1LTAuNTg2LTIuMTIxLDBzLTAuNTg2LDEuNTM1LDAsMi4xMjFMMTkuODc5LDExLjQ3NXoiIGNsYXNzPSJwaWN0b2dyYW1femVzIi8+JiN4YTsJPHBhdGggZD0iTTIxLjUsMTdjLTAuODI5LDAtMS41LDAuNjcyLTEuNSwxLjVjMCwxLjgyNiwwLjM4OSwyLjUtMS41LDIuNWgtNmMtMC44MjcsMC0xLjUtMC42NzMtMS41LTEuNXYtNSYjMTA7JiM5OyYjOTtjMC0wLjgyNywwLjY3My0xLjUsMS41LTEuNWgwLjE4OGMtMC40NTEsMC41ODgtMC40MzIsMS40MjIsMC4xMDcsMS45NmMwLjU4NiwwLjU4NiwxLjUzNSwwLjU4NiwyLjEyMSwwbDMuNDg1LTMuNDg1bC0zLjQ4NS0zLjQ4NSYjMTA7JiM5OyYjOTtjLTAuNTg2LTAuNTg2LTEuNTM1LTAuNTg2LTIuMTIxLDBDMTIuMjQyLDguNTQzLDEyLjIzLDkuNDExLDEyLjcyMiwxMEgxMi41QzEwLjAxOSwxMCw4LDEyLjAxOSw4LDE0LjV2NSYjMTA7JiM5OyYjOTtjMCwyLjQ4MSwyLjAxOSw0LjUsNC41LDQuNWg2YzIuNTIzLDAsNC41LTEuNTM3LDQuNS0zLjV2LTJDMjMsMTcuNjcyLDIyLjMyOSwxNywyMS41LDE3eiIgY2xhc3M9InBpY3RvZ3JhbV96ZXMiLz4mI3hhOzwvZz4mI3hhOzwvc3ZnPg==;rounded=1;fillColor=#dae8fc;strokeColor=#6c8ebf;imageWidth=20;imageHeight=20;" vertex="1" parent="1">
          <mxGeometry x="272" y="161" width="170" height="30" as="geometry" />
        </mxCell>
        <mxCell id="CQn9b_zsBKV_uo-ZYTD5-28" style="edgeStyle=orthogonalEdgeStyle;rounded=0;orthogonalLoop=1;jettySize=auto;html=1;entryX=0;entryY=0.5;entryDx=0;entryDy=0;exitX=1;exitY=0.5;exitDx=0;exitDy=0;" edge="1" source="CQn9b_zsBKV_uo-ZYTD5-53" target="CQn9b_zsBKV_uo-ZYTD5-34" parent="1">
          <mxGeometry relative="1" as="geometry">
            <mxPoint x="1142" y="177" as="targetPoint" />
            <mxPoint x="1092" y="177" as="sourcePoint" />
          </mxGeometry>
        </mxCell>
        <mxCell id="CQn9b_zsBKV_uo-ZYTD5-29" style="edgeStyle=orthogonalEdgeStyle;rounded=0;orthogonalLoop=1;jettySize=auto;html=1;entryX=1;entryY=0.5;entryDx=0;entryDy=0;" edge="1" source="CQn9b_zsBKV_uo-ZYTD5-30" target="CQn9b_zsBKV_uo-ZYTD5-32" parent="1">
          <mxGeometry relative="1" as="geometry" />
        </mxCell>
        <mxCell id="CQn9b_zsBKV_uo-ZYTD5-30" value="node1" style="rounded=1;whiteSpace=wrap;html=1;fillColor=#d5e8d4;strokeColor=#82b366;" vertex="1" parent="1">
          <mxGeometry x="1042" y="233" width="170" height="30" as="geometry" />
        </mxCell>
        <mxCell id="CQn9b_zsBKV_uo-ZYTD5-31" style="edgeStyle=orthogonalEdgeStyle;rounded=0;orthogonalLoop=1;jettySize=auto;html=1;entryX=0;entryY=0.5;entryDx=0;entryDy=0;exitX=0;exitY=0.5;exitDx=0;exitDy=0;" edge="1" source="CQn9b_zsBKV_uo-ZYTD5-32" target="CQn9b_zsBKV_uo-ZYTD5-53" parent="1">
          <mxGeometry relative="1" as="geometry">
            <Array as="points">
              <mxPoint x="902" y="248" />
              <mxPoint x="902" y="177" />
            </Array>
            <mxPoint x="911.9999999999999" y="177" as="targetPoint" />
          </mxGeometry>
        </mxCell>
        <mxCell id="CQn9b_zsBKV_uo-ZYTD5-32" value="signal: on_click" style="text;html=1;align=center;verticalAlign=middle;whiteSpace=wrap;rounded=0;" vertex="1" parent="1">
          <mxGeometry x="912" y="233" width="90" height="30" as="geometry" />
        </mxCell>
        <mxCell id="CQn9b_zsBKV_uo-ZYTD5-33" style="edgeStyle=orthogonalEdgeStyle;rounded=0;orthogonalLoop=1;jettySize=auto;html=1;entryX=0;entryY=0.5;entryDx=0;entryDy=0;" edge="1" source="CQn9b_zsBKV_uo-ZYTD5-34" target="CQn9b_zsBKV_uo-ZYTD5-43" parent="1">
          <mxGeometry relative="1" as="geometry" />
        </mxCell>
        <mxCell id="CQn9b_zsBKV_uo-ZYTD5-34" value="signal: forward" style="text;html=1;align=center;verticalAlign=middle;whiteSpace=wrap;rounded=0;" vertex="1" parent="1">
          <mxGeometry x="1138.95" y="162" width="90" height="30" as="geometry" />
        </mxCell>
        <mxCell id="CQn9b_zsBKV_uo-ZYTD5-35" style="edgeStyle=orthogonalEdgeStyle;rounded=0;orthogonalLoop=1;jettySize=auto;html=1;entryX=1;entryY=0.5;entryDx=0;entryDy=0;" edge="1" source="CQn9b_zsBKV_uo-ZYTD5-36" target="CQn9b_zsBKV_uo-ZYTD5-38" parent="1">
          <mxGeometry relative="1" as="geometry" />
        </mxCell>
        <mxCell id="CQn9b_zsBKV_uo-ZYTD5-36" value="node2" style="rounded=1;whiteSpace=wrap;html=1;fillColor=#d5e8d4;strokeColor=#82b366;" vertex="1" parent="1">
          <mxGeometry x="1042" y="269" width="170" height="30" as="geometry" />
        </mxCell>
        <mxCell id="CQn9b_zsBKV_uo-ZYTD5-37" style="edgeStyle=orthogonalEdgeStyle;rounded=0;orthogonalLoop=1;jettySize=auto;html=1;entryX=0;entryY=0.5;entryDx=0;entryDy=0;exitX=0;exitY=0.5;exitDx=0;exitDy=0;" edge="1" source="CQn9b_zsBKV_uo-ZYTD5-38" target="CQn9b_zsBKV_uo-ZYTD5-53" parent="1">
          <mxGeometry relative="1" as="geometry">
            <Array as="points">
              <mxPoint x="892" y="284" />
              <mxPoint x="892" y="177" />
            </Array>
            <mxPoint x="911.9999999999999" y="177" as="targetPoint" />
          </mxGeometry>
        </mxCell>
        <mxCell id="CQn9b_zsBKV_uo-ZYTD5-38" value="signal: on_click" style="text;html=1;align=center;verticalAlign=middle;whiteSpace=wrap;rounded=0;" vertex="1" parent="1">
          <mxGeometry x="912" y="269" width="90" height="30" as="geometry" />
        </mxCell>
        <mxCell id="CQn9b_zsBKV_uo-ZYTD5-39" style="edgeStyle=orthogonalEdgeStyle;rounded=0;orthogonalLoop=1;jettySize=auto;html=1;entryX=1;entryY=0.5;entryDx=0;entryDy=0;" edge="1" source="CQn9b_zsBKV_uo-ZYTD5-40" target="CQn9b_zsBKV_uo-ZYTD5-42" parent="1">
          <mxGeometry relative="1" as="geometry" />
        </mxCell>
        <mxCell id="CQn9b_zsBKV_uo-ZYTD5-40" value="node3" style="rounded=1;whiteSpace=wrap;html=1;fillColor=#f8cecc;strokeColor=#b85450;" vertex="1" parent="1">
          <mxGeometry x="1077" y="304" width="170" height="30" as="geometry" />
        </mxCell>
        <mxCell id="CQn9b_zsBKV_uo-ZYTD5-42" value="signal: on_click" style="text;html=1;align=center;verticalAlign=middle;whiteSpace=wrap;rounded=0;" vertex="1" parent="1">
          <mxGeometry x="912" y="304" width="90" height="30" as="geometry" />
        </mxCell>
        <mxCell id="CQn9b_zsBKV_uo-ZYTD5-43" value="&lt;span style=&quot;background-color: initial;&quot;&gt;_on_click_forward(args):&lt;/span&gt;&lt;div&gt;&lt;span style=&quot;background-color: initial;&quot;&gt;do something&lt;/span&gt;&lt;/div&gt;" style="rounded=0;whiteSpace=wrap;html=1;" vertex="1" parent="1">
          <mxGeometry x="1283" y="159" width="160" height="36" as="geometry" />
        </mxCell>
        <mxCell id="CQn9b_zsBKV_uo-ZYTD5-44" value="connect to script" style="text;html=1;align=center;verticalAlign=middle;whiteSpace=wrap;rounded=0;" vertex="1" parent="1">
          <mxGeometry x="1128.95" y="138" width="110" height="30" as="geometry" />
        </mxCell>
        <mxCell id="CQn9b_zsBKV_uo-ZYTD5-45" style="edgeStyle=orthogonalEdgeStyle;rounded=0;orthogonalLoop=1;jettySize=auto;html=1;entryX=1;entryY=0.5;entryDx=0;entryDy=0;" edge="1" source="CQn9b_zsBKV_uo-ZYTD5-46" target="CQn9b_zsBKV_uo-ZYTD5-48" parent="1">
          <mxGeometry relative="1" as="geometry" />
        </mxCell>
        <mxCell id="CQn9b_zsBKV_uo-ZYTD5-46" value="node4" style="rounded=1;whiteSpace=wrap;html=1;fillColor=#f8cecc;strokeColor=#b85450;" vertex="1" parent="1">
          <mxGeometry x="1113" y="340" width="170" height="30" as="geometry" />
        </mxCell>
        <mxCell id="CQn9b_zsBKV_uo-ZYTD5-48" value="signal: on_click" style="text;html=1;align=center;verticalAlign=middle;whiteSpace=wrap;rounded=0;" vertex="1" parent="1">
          <mxGeometry x="912" y="340" width="90" height="30" as="geometry" />
        </mxCell>
        <mxCell id="CQn9b_zsBKV_uo-ZYTD5-49" value="&lt;h1 style=&quot;margin-top: 0px;&quot;&gt;Options&lt;/h1&gt;&lt;p style=&quot;line-height: 100%;&quot;&gt;forward_signal_name:&amp;nbsp; on_click&lt;/p&gt;&lt;p style=&quot;line-height: 100%;&quot;&gt;monitor_method:&amp;nbsp;Specified&lt;/p&gt;&lt;p style=&quot;line-height: 100%;&quot;&gt;monitor_node_paths: &lt;span style=&quot;white-space: pre;&quot;&gt;&#x9;&lt;/span&gt;[./Container1,./Other/Container2]&lt;/p&gt;" style="text;html=1;whiteSpace=wrap;overflow=hidden;rounded=0;" vertex="1" parent="1">
          <mxGeometry x="912" y="28" width="209" height="125" as="geometry" />
        </mxCell>
        <mxCell id="CQn9b_zsBKV_uo-ZYTD5-53" value="&lt;span style=&quot;font-weight: 400; text-align: center;&quot;&gt;SignalForward&lt;/span&gt;" style="label;whiteSpace=wrap;html=1;image=data:image/svg+xml,PHN2ZyB4bWxuczp4bGluaz0iaHR0cDovL3d3dy53My5vcmcvMTk5OS94bGluayIgeG1sbnM9Imh0dHA6Ly93d3cudzMub3JnLzIwMDAvc3ZnIiB4bWw6c3BhY2U9InByZXNlcnZlIiB2aWV3Qm94PSIwIDAgMzIgMzIiIGhlaWdodD0iODAwcHgiIHdpZHRoPSI4MDBweCIgaWQ9IlVwbG9hZGVkIHRvIHN2Z3JlcG8uY29tIiB2ZXJzaW9uPSIxLjEiPiYjeGE7PHN0eWxlIHR5cGU9InRleHQvY3NzIj4mI3hhOwkucGljdG9ncmFtX2VlbntmaWxsOiNGNEQ2QjA7fSYjeGE7CS5waWN0b2dyYW1fdHdlZXtmaWxsOiNGOEFEODk7fSYjeGE7CS5waWN0b2dyYW1femVze2ZpbGw6IzBDNjY2Nzt9JiN4YTsJLnBpY3RvZ3JhbV92aWpme2ZpbGw6IzAxQTU5Qzt9JiN4YTsJLnN0MHtmaWxsOiNFNTREMkU7fSYjeGE7CS5zdDF7ZmlsbDojRjhBRDg5O30mI3hhOwkuc3Qye2ZpbGw6I0YyNzI2MTt9JiN4YTsJLnN0M3tmaWxsOm5vbmU7fSYjeGE7CS5zdDR7ZmlsbDojMDFBNTlDO30mI3hhOwkuc3Q1e2ZpbGw6IzAwOEE3NDt9JiN4YTs8L3N0eWxlPiYjeGE7PGc+JiN4YTsJPHBhdGggZD0iTTQsMTZjMCw2LjYyNyw1LjM3MywxMiwxMiwxMnYtNGgtMy41QzEwLjAxOSwyNCw4LDIxLjk4MSw4LDE5LjV2LTVjMC0yLjQ4MSwyLjAxOS00LjUsNC41LTQuNSYjMTA7JiM5OyYjOTtoMC4yMjJjLTAuNDkyLTAuNTg5LTAuNDgtMS40NTcsMC4wNzMtMi4wMTFjMC41ODYtMC41ODYsMS41MzUtMC41ODYsMi4xMjEsMEwxNiw5LjA3M1Y0QzkuMzczLDQsNCw5LjM3Myw0LDE2eiIgY2xhc3M9InBpY3RvZ3JhbV90d2VlIi8+JiN4YTsJPHBhdGggZD0iTTEzLjg1NiwxNS40Yy0wLjM4NCwwLTAuNzY4LTAuMTQ2LTEuMDYxLTAuNDM5Yy0wLjUzOC0wLjUzOC0wLjU1OC0xLjM3Mi0wLjEwNy0xLjk2SDEyLjUmIzEwOyYjOTsmIzk7Yy0wLjgyNywwLTEuNSwwLjY3My0xLjUsMS41djVjMCwwLjgyNywwLjY3MywxLjUsMS41LDEuNUgxNnYtNy4xMjNsLTEuMDgzLDEuMDgzQzE0LjYyNCwxNS4yNTMsMTQuMjQsMTUuNCwxMy44NTYsMTUuNHoiIGNsYXNzPSJwaWN0b2dyYW1fdHdlZSIvPiYjeGE7CTxwYXRoIGQ9Ik00LDE2QzQsOS4zNzMsOS4zNzMsNCwxNiw0VjBDNy4xNjMsMCwwLDcuMTYzLDAsMTZzNy4xNjMsMTYsMTYsMTZ2LTRDOS4zNzMsMjgsNCwyMi42MjcsNCwxNnoiIGNsYXNzPSJwaWN0b2dyYW1femVzIi8+JiN4YTsJPHBhdGggZD0iTTE2LDB2NGM2LjYyNywwLDEyLDUuMzczLDEyLDEyYzAsNi42MjctNS4zNzMsMTItMTIsMTJ2NGM4LjgzNywwLDE2LTcuMTYzLDE2LTE2UzI0LjgzNywwLDE2LDB6IiBjbGFzcz0icGljdG9ncmFtX3ZpamYiLz4mI3hhOwk8cGF0aCBkPSJNMTYsNHY1LjA3M2wyLjQwMiwyLjQwMkwxNiwxMy44NzdWMjFoMi41YzEuODg5LDAsMS41LTAuNjc0LDEuNS0yLjVjMC0wLjgyOCwwLjY3MS0xLjUsMS41LTEuNSYjMTA7JiM5OyYjOTtzMS41LDAuNjcyLDEuNSwxLjV2MmMwLDEuOTYzLTEuOTc3LDMuNS00LjUsMy41SDE2djRjNi42MjcsMCwxMi01LjM3MywxMi0xMkMyOCw5LjM3MywyMi42MjcsNCwxNiw0eiBNMjAuNjM2LDE0Ljk2JiMxMDsmIzk7JiM5O2MtMC4yOTMsMC4yOTMtMC42NzcsMC40MzktMS4wNjEsMC40MzlzLTAuNzY4LTAuMTQ2LTEuMDYxLTAuNDM5Yy0wLjU4Ni0wLjU4Ni0wLjU4Ni0xLjUzNSwwLTIuMTIxbDEuMzY0LTEuMzY0bC0xLjM2NC0xLjM2NCYjMTA7JiM5OyYjOTtjLTAuNTg2LTAuNTg2LTAuNTg2LTEuNTM1LDAtMi4xMjFzMS41MzUtMC41ODYsMi4xMjEsMGwzLjQ4NSwzLjQ4NUwyMC42MzYsMTQuOTZ6IiBjbGFzcz0icGljdG9ncmFtX2VlbiIvPiYjeGE7CTxwYXRoIGQ9Ik0xOS44NzksMTEuNDc1bC0xLjM2NCwxLjM2NGMtMC41ODYsMC41ODYtMC41ODYsMS41MzUsMCwyLjEyMWMwLjU4NiwwLjU4NiwxLjUzNSwwLjU4NiwyLjEyMSwwJiMxMDsmIzk7JiM5O2wzLjQ4NS0zLjQ4NWwtMy40ODUtMy40ODVjLTAuNTg2LTAuNTg2LTEuNTM1LTAuNTg2LTIuMTIxLDBzLTAuNTg2LDEuNTM1LDAsMi4xMjFMMTkuODc5LDExLjQ3NXoiIGNsYXNzPSJwaWN0b2dyYW1femVzIi8+JiN4YTsJPHBhdGggZD0iTTIxLjUsMTdjLTAuODI5LDAtMS41LDAuNjcyLTEuNSwxLjVjMCwxLjgyNiwwLjM4OSwyLjUtMS41LDIuNWgtNmMtMC44MjcsMC0xLjUtMC42NzMtMS41LTEuNXYtNSYjMTA7JiM5OyYjOTtjMC0wLjgyNywwLjY3My0xLjUsMS41LTEuNWgwLjE4OGMtMC40NTEsMC41ODgtMC40MzIsMS40MjIsMC4xMDcsMS45NmMwLjU4NiwwLjU4NiwxLjUzNSwwLjU4NiwyLjEyMSwwbDMuNDg1LTMuNDg1bC0zLjQ4NS0zLjQ4NSYjMTA7JiM5OyYjOTtjLTAuNTg2LTAuNTg2LTEuNTM1LTAuNTg2LTIuMTIxLDBDMTIuMjQyLDguNTQzLDEyLjIzLDkuNDExLDEyLjcyMiwxMEgxMi41QzEwLjAxOSwxMCw4LDEyLjAxOSw4LDE0LjV2NSYjMTA7JiM5OyYjOTtjMCwyLjQ4MSwyLjAxOSw0LjUsNC41LDQuNWg2YzIuNTIzLDAsNC41LTEuNTM3LDQuNS0zLjV2LTJDMjMsMTcuNjcyLDIyLjMyOSwxNywyMS41LDE3eiIgY2xhc3M9InBpY3RvZ3JhbV96ZXMiLz4mI3hhOzwvZz4mI3hhOzwvc3ZnPg==;rounded=1;fillColor=#dae8fc;strokeColor=#6c8ebf;imageWidth=20;imageHeight=20;" vertex="1" parent="1">
          <mxGeometry x="912" y="162" width="170" height="30" as="geometry" />
        </mxCell>
        <mxCell id="CQn9b_zsBKV_uo-ZYTD5-54" value="Container1" style="rounded=1;whiteSpace=wrap;html=1;" vertex="1" parent="1">
          <mxGeometry x="1006" y="198" width="170" height="30" as="geometry" />
        </mxCell>
        <mxCell id="CQn9b_zsBKV_uo-ZYTD5-56" value="Other" style="rounded=1;whiteSpace=wrap;html=1;" vertex="1" parent="1">
          <mxGeometry x="1006" y="376" width="170" height="30" as="geometry" />
        </mxCell>
        <mxCell id="CQn9b_zsBKV_uo-ZYTD5-57" value="Container2" style="rounded=1;whiteSpace=wrap;html=1;" vertex="1" parent="1">
          <mxGeometry x="1042" y="412" width="170" height="30" as="geometry" />
        </mxCell>
        <mxCell id="CQn9b_zsBKV_uo-ZYTD5-58" style="edgeStyle=orthogonalEdgeStyle;rounded=0;orthogonalLoop=1;jettySize=auto;html=1;entryX=1;entryY=0.5;entryDx=0;entryDy=0;" edge="1" parent="1" source="CQn9b_zsBKV_uo-ZYTD5-59" target="CQn9b_zsBKV_uo-ZYTD5-60">
          <mxGeometry relative="1" as="geometry" />
        </mxCell>
        <mxCell id="CQn9b_zsBKV_uo-ZYTD5-59" value="node5" style="rounded=1;whiteSpace=wrap;html=1;fillColor=#d5e8d4;strokeColor=#82b366;" vertex="1" parent="1">
          <mxGeometry x="1077" y="448" width="170" height="30" as="geometry" />
        </mxCell>
        <mxCell id="CQn9b_zsBKV_uo-ZYTD5-64" style="edgeStyle=orthogonalEdgeStyle;rounded=0;orthogonalLoop=1;jettySize=auto;html=1;entryX=0;entryY=0.5;entryDx=0;entryDy=0;" edge="1" parent="1" source="CQn9b_zsBKV_uo-ZYTD5-60" target="CQn9b_zsBKV_uo-ZYTD5-53">
          <mxGeometry relative="1" as="geometry">
            <Array as="points">
              <mxPoint x="882" y="463" />
              <mxPoint x="882" y="177" />
            </Array>
          </mxGeometry>
        </mxCell>
        <mxCell id="CQn9b_zsBKV_uo-ZYTD5-60" value="signal: on_click" style="text;html=1;align=center;verticalAlign=middle;whiteSpace=wrap;rounded=0;" vertex="1" parent="1">
          <mxGeometry x="907" y="448" width="90" height="30" as="geometry" />
        </mxCell>
        <mxCell id="CQn9b_zsBKV_uo-ZYTD5-61" style="edgeStyle=orthogonalEdgeStyle;rounded=0;orthogonalLoop=1;jettySize=auto;html=1;entryX=1;entryY=0.5;entryDx=0;entryDy=0;" edge="1" parent="1" source="CQn9b_zsBKV_uo-ZYTD5-62" target="CQn9b_zsBKV_uo-ZYTD5-63">
          <mxGeometry relative="1" as="geometry" />
        </mxCell>
        <mxCell id="CQn9b_zsBKV_uo-ZYTD5-62" value="node6" style="rounded=1;whiteSpace=wrap;html=1;fillColor=#d5e8d4;strokeColor=#82b366;" vertex="1" parent="1">
          <mxGeometry x="1077" y="484" width="170" height="30" as="geometry" />
        </mxCell>
        <mxCell id="CQn9b_zsBKV_uo-ZYTD5-65" style="edgeStyle=orthogonalEdgeStyle;rounded=0;orthogonalLoop=1;jettySize=auto;html=1;entryX=0;entryY=0.5;entryDx=0;entryDy=0;" edge="1" parent="1" source="CQn9b_zsBKV_uo-ZYTD5-63" target="CQn9b_zsBKV_uo-ZYTD5-53">
          <mxGeometry relative="1" as="geometry">
            <Array as="points">
              <mxPoint x="872" y="499" />
              <mxPoint x="872" y="177" />
            </Array>
          </mxGeometry>
        </mxCell>
        <mxCell id="CQn9b_zsBKV_uo-ZYTD5-63" value="signal: on_click" style="text;html=1;align=center;verticalAlign=middle;whiteSpace=wrap;rounded=0;" vertex="1" parent="1">
          <mxGeometry x="907" y="484" width="90" height="30" as="geometry" />
        </mxCell>
        <mxCell id="CQn9b_zsBKV_uo-ZYTD5-66" style="edgeStyle=orthogonalEdgeStyle;rounded=0;orthogonalLoop=1;jettySize=auto;html=1;entryX=1;entryY=0.5;entryDx=0;entryDy=0;" edge="1" parent="1" source="CQn9b_zsBKV_uo-ZYTD5-67" target="CQn9b_zsBKV_uo-ZYTD5-68">
          <mxGeometry relative="1" as="geometry" />
        </mxCell>
        <mxCell id="CQn9b_zsBKV_uo-ZYTD5-67" value="node7" style="rounded=1;whiteSpace=wrap;html=1;fillColor=#f8cecc;strokeColor=#b85450;" vertex="1" parent="1">
          <mxGeometry x="1042" y="520" width="170" height="30" as="geometry" />
        </mxCell>
        <mxCell id="CQn9b_zsBKV_uo-ZYTD5-68" value="signal: on_click" style="text;html=1;align=center;verticalAlign=middle;whiteSpace=wrap;rounded=0;" vertex="1" parent="1">
          <mxGeometry x="907" y="520" width="90" height="30" as="geometry" />
        </mxCell>
      </root>
    </mxGraphModel>
  </diagram>
</mxfile>
